# xmcd
#
# Track frame offsets: 
#        150
#        21387
#        46343
#        64147
#        85914
#        108933
#        130871
#        157077
#        179005
#        199593
#        219122
#
# Disc length: 3231 seconds
#
# Revision: 2
# Processed by: cddbd v1.5.2PL0 Copyright (c) Steve Scherf et al.
# Submitted via: ExactAudioCopy v1.1
#
DISCID=970c9d0b
DTITLE=天野月子 - 天龍
DYEAR=1900
DGENRE=Rock
TTITLE0=劔
TTITLE1=鮫
TTITLE2=恋
TTITLE3=骨
TTITLE4=龍
TTITLE5=天
TTITLE6=蝶
TTITLE7=月
TTITLE8=虹
TTITLE9=轍
TTITLE10=枳
EXTD=
EXTT0=
EXTT1=
EXTT2=
EXTT3=
EXTT4=
EXTT5=
EXTT6=
EXTT7=
EXTT8=
EXTT9=
EXTT10=
PLAYORDER=
